<svg xmlns="http://www.w3.org/2000/svg" width="25" height="25" enable-background="new 0 0 512 512" viewBox="0 0 512 512" id="female-gender">
  <path fill="#FF69B4" d="M256.332,296.044c-76.712,0-139.122-62.412-139.122-139.127c0-76.709,62.41-139.116,139.122-139.116
    s139.122,62.407,139.122,139.116C395.454,233.632,333.044,296.044,256.332,296.044z M256.332,35.801
    c-66.787,0-121.122,54.332-121.122,121.116c0,66.79,54.335,121.127,121.122,121.127c66.787,0,121.122-54.337,121.122-121.127
    C377.454,90.133,323.119,35.801,256.332,35.801z"></path>
  <path fill="#FF69B4" d="M256.332,494.902c-4.971,0-9-4.029-9-9V287.044c0-4.971,4.029-9,9-9s9,4.029,9,9v198.858
    C265.332,490.873,261.303,494.902,256.332,494.902z"></path>
  <path fill="#FF69B4" d="M353.312,395.445H159.353c-4.971,0-9-4.029-9-9s4.029-9,9-9h193.959c4.971,0,9,4.029,9,9
    S358.282,395.445,353.312,395.445z"></path>
</svg>
