<svg xmlns="http://www.w3.org/2000/svg" width="25" height="25" enable-background="new 0 0 512 512" viewBox="0 0 512 512" id="male-gender">
  <path fill="#0000FF" d="M187.131 494.899c-45.241 0-87.774-17.609-119.764-49.584-31.977-32.01-49.585-74.541-49.585-119.764 0-45.224 17.608-87.755 49.58-119.76 31.995-31.978 74.528-49.585 119.769-49.585 45.24 0 87.773 17.607 119.764 49.579 31.979 32.011 49.587 74.542 49.587 119.766 0 45.223-17.608 87.755-49.581 119.759C274.904 477.29 232.372 494.899 187.131 494.899zM187.131 174.207c-40.435 0-78.449 15.736-107.04 44.312-58.956 59.016-58.956 155.05.005 214.071 28.586 28.571 66.6 44.31 107.035 44.31 40.434 0 78.448-15.738 107.039-44.314 58.958-59.017 58.958-155.051-.004-214.072C265.58 189.943 227.565 174.207 187.131 174.207zM463.753 191.401c-.423 0-.85-.029-1.279-.091-4.921-.7-8.343-5.257-7.643-10.178l20.453-143.734L331.586 57.82c-4.923.704-9.479-2.723-10.177-7.644-.699-4.921 2.723-9.478 7.644-10.177l155.563-22.108c2.808-.404 5.63.545 7.631 2.547 2.002 2.002 2.944 4.829 2.546 7.631l-22.142 155.599C472.013 188.159 468.161 191.401 463.753 191.401z"></path>
  <path fill="#0000FF" d="M300.533,221.152c-2.304,0-4.607-0.879-6.364-2.636c-3.515-3.515-3.515-9.214,0-12.729l185.35-185.351
    c3.516-3.514,9.213-3.514,12.729,0c3.515,3.515,3.515,9.214,0,12.729L306.896,218.517
    C305.139,220.273,302.836,221.152,300.533,221.152z"></path>
</svg>
